<svg xmlns="http://www.w3.org/2000/svg" width="600" height="600" viewBox="0 0 600 600" style="display: block; margin: 0px auto;"><defs><clipPath id="lf-clip"><path d="M -600,-600 H 600 V 600 H -600 Z M -137.28,0 A 137.28,137.28 0 1,0 137.28,0 A 137.28,137.28 0 1,0 -137.28,0 Z" clip-rule="evenodd"/></clipPath></defs><g transform="translate(300,300)"><g transform="rotate(0)" clip-path="url(#lf-clip)"><path d="M 0,0 A 132,132 0 0,0 198.00000000000003,114.31535329954589 A 132,132 0 0,0 0,0 Z" fill="#ffffff" fill-opacity="1" stroke="none"/><path d="M 0,0 A 132,132 0 0,0 1.3999593151168771e-14,228.6307065990918 A 132,132 0 0,0 0,0 Z" fill="#ffffff" fill-opacity="1" stroke="none"/><path d="M 0,0 A 132,132 0 0,0 -197.99999999999997,114.31535329954598 A 132,132 0 0,0 0,0 Z" fill="#ffffff" fill-opacity="1" stroke="none"/><path d="M 0,0 A 132,132 0 0,0 -198.00000000000006,-114.31535329954585 A 132,132 0 0,0 0,0 Z" fill="#ffffff" fill-opacity="1" stroke="none"/><path d="M 0,0 A 132,132 0 0,0 -4.199877945350631e-14,-228.6307065990918 A 132,132 0 0,0 0,0 Z" fill="#ffffff" fill-opacity="1" stroke="none"/><path d="M 0,0 A 132,132 0 0,0 198.00000000000006,-114.31535329954583 A 132,132 0 0,0 0,0 Z" fill="#ffffff" fill-opacity="1" stroke="none"/><circle cx="132" cy="0" r="132" fill="none" stroke="#ffffff" stroke-width="10" opacity="1"/><circle cx="66.00000000000001" cy="114.31535329954589" r="132" fill="none" stroke="#ffffff" stroke-width="10" opacity="1"/><circle cx="-65.99999999999997" cy="114.3153532995459" r="132" fill="none" stroke="#ffffff" stroke-width="10" opacity="1"/><circle cx="-132" cy="1.6165337748745062e-14" r="132" fill="none" stroke="#ffffff" stroke-width="10" opacity="1"/><circle cx="-66.00000000000006" cy="-114.31535329954586" r="132" fill="none" stroke="#ffffff" stroke-width="10" opacity="1"/><circle cx="66.00000000000001" cy="-114.31535329954589" r="132" fill="none" stroke="#ffffff" stroke-width="10" opacity="1"/><line x1="198.00000000000003" y1="-114.31535329954589" x2="198.00000000000003" y2="114.31535329954589" stroke="#ffffff" stroke-width="10" opacity="1"/><line x1="198.00000000000003" y1="114.31535329954589" x2="1.3999593151168771e-14" y2="228.6307065990918" stroke="#ffffff" stroke-width="10" opacity="1"/><line x1="1.3999593151168771e-14" y1="228.6307065990918" x2="-197.99999999999997" y2="114.31535329954598" stroke="#ffffff" stroke-width="10" opacity="1"/><line x1="-198.00000000000003" y1="114.31535329954589" x2="-198.00000000000006" y2="-114.31535329954585" stroke="#ffffff" stroke-width="10" opacity="1"/><line x1="-198.00000000000006" y1="-114.31535329954585" x2="-4.199877945350631e-14" y2="-228.6307065990918" stroke="#ffffff" stroke-width="10" opacity="1"/><line x1="-4.199877945350631e-14" y1="-228.6307065990918" x2="198.00000000000006" y2="-114.31535329954583" stroke="#ffffff" stroke-width="10" opacity="1"/></g><circle cx="0" cy="0" r="137.28" fill="none" stroke="#ffffff" stroke-width="10"/></g></svg>